# xmcd
#
# Track frame offsets:
# 150
# 14000
# 28572
# 43690
# 55007
# 66372
# 78652
# 90285
# 101640
# 116512
#
# Disc length: 1752 seconds
#
#
# Revision: 2
# Processed by: cddbd v1.4PL0 Copyright (c) Steve Scherf et al.
# Submitted via: FreeRIP 2.40 
#
DISCID=7b06d60a
DTITLE=Glenn Campbell - Merry Christmas
DYEAR=1991
DGENRE=Country
TTITLE0=Christmas Song (Merry Christmas to You)
TTITLE1=Have Yourself a Merry Little Christmas
TTITLE2=Christmas is for Children
TTITLE3=Silent Night, Holy Night
TTITLE4=One Pair of Hands
TTITLE5=White Christmas
TTITLE6=Pretty Paper
TTITLE7=It Must Be Getting Close to Christmas
TTITLE8=There's No Place Like Home
TTITLE9=The Night Before Christmas
EXTD=
EXTT0=
EXTT1=
EXTT2=
EXTT3=
EXTT4=
EXTT5=
EXTT6=
EXTT7=
EXTT8=
EXTT9=
PLAYORDER=
